# xmcd
#
# Track frame offsets: 
#        150
#        13331
#        26578
#        41392
#        56728
#        77692
#        94171
#        114319
#        125099
#        144806
#        157831
#        166523
#        179849
#        210450
#
# Disc length: 2946 seconds
#
# Revision: 0
# Processed by: cddbd v1.4PL0 Copyright (c) Steve Scherf et al.
# Submitted via: ExactAudioCopy v0.95a3
#
DISCID=af0b800e
DTITLE=Roger Sutcliffe - C-Breeze Blues
DYEAR=2000
DGENRE=Blues
TTITLE0=C-Breeze Blues
TTITLE1=Buddy´s Blues
TTITLE2=Crossroade Blues
TTITLE3=Central Space Blues
TTITLE4=You don´t play Rhythem and Blues
TTITLE5=Nobody knows you when your´re down and out
TTITLE6=Good Time Waltz
TTITLE7=East Swing
TTITLE8=Midweek Blues
TTITLE9=Sporting Life Blues
TTITLE10=Mr. Johnson
TTITLE11=Lumb Lane
TTITLE12=Georgia on my mind
TTITLE13=Goodnight waltz
EXTD=
EXTT0=
EXTT1=
EXTT2=
EXTT3=
EXTT4=
EXTT5=
EXTT6=
EXTT7=
EXTT8=
EXTT9=
EXTT10=
EXTT11=
EXTT12=
EXTT13=
PLAYORDER=
